<svg xmlns="http://www.w3.org/2000/svg" xmlns:xlink="http://www.w3.org/1999/xlink" width="500" zoomAndPan="magnify" viewBox="0 0 375 374.999991" height="500" preserveAspectRatio="xMidYMid meet" version="1.0"><defs><g/><clipPath id="9d396aca56"><path d="M 80.921875 86.332031 L 294.078125 86.332031 L 294.078125 299.488281 L 80.921875 299.488281 Z M 80.921875 86.332031 " clip-rule="nonzero"/></clipPath><clipPath id="bc235ce84d"><path d="M 187.5 86.332031 C 128.636719 86.332031 80.921875 134.046875 80.921875 192.910156 C 80.921875 251.773438 128.636719 299.488281 187.5 299.488281 C 246.363281 299.488281 294.078125 251.773438 294.078125 192.910156 C 294.078125 134.046875 246.363281 86.332031 187.5 86.332031 " clip-rule="nonzero"/></clipPath><clipPath id="c09d7fb005"><path d="M 92.589844 98 L 282.410156 98 L 282.410156 287.816406 L 92.589844 287.816406 Z M 92.589844 98 " clip-rule="nonzero"/></clipPath><clipPath id="56dbe08c4f"><path d="M 187.5 98 C 135.082031 98 92.589844 140.492188 92.589844 192.910156 C 92.589844 245.328125 135.082031 287.816406 187.5 287.816406 C 239.917969 287.816406 282.410156 245.328125 282.410156 192.910156 C 282.410156 140.492188 239.917969 98 187.5 98 " clip-rule="nonzero"/></clipPath><clipPath id="ac59ad1b1c"><path d="M 110.449219 159 L 252 159 L 252 281 L 110.449219 281 Z M 110.449219 159 " clip-rule="nonzero"/></clipPath><clipPath id="dde18ce938"><path d="M 120 148 L 273.949219 148 L 273.949219 279 L 120 279 Z M 120 148 " clip-rule="nonzero"/></clipPath><clipPath id="8c077af8ad"><path d="M 110.449219 106 L 273.949219 106 L 273.949219 281 L 110.449219 281 Z M 110.449219 106 " clip-rule="nonzero"/></clipPath><clipPath id="01691b0101"><path d="M 278 190 L 342 190 L 342 252 L 278 252 Z M 278 190 " clip-rule="nonzero"/></clipPath><clipPath id="0e6a5e0a4b"><path d="M 40.082031 184.433594 L 342.21875 192.683594 L 339.640625 287.148438 L 37.503906 278.898438 Z M 40.082031 184.433594 " clip-rule="nonzero"/></clipPath><clipPath id="e092709a82"><path d="M 40.082031 184.433594 L 342.21875 192.683594 L 339.640625 287.148438 L 37.503906 278.898438 Z M 40.082031 184.433594 " clip-rule="nonzero"/></clipPath><clipPath id="fbe47c7ccb"><path d="M 279 190 L 313 190 L 313 211 L 279 211 Z M 279 190 " clip-rule="nonzero"/></clipPath><clipPath id="4c8ec5afa9"><path d="M 40.082031 184.433594 L 342.21875 192.683594 L 339.640625 287.148438 L 37.503906 278.898438 Z M 40.082031 184.433594 " clip-rule="nonzero"/></clipPath><clipPath id="75a5c1f533"><path d="M 40.082031 184.433594 L 342.21875 192.683594 L 339.640625 287.148438 L 37.503906 278.898438 Z M 40.082031 184.433594 " clip-rule="nonzero"/></clipPath><clipPath id="e94621398e"><path d="M 38 193 L 103 193 L 103 255 L 38 255 Z M 38 193 " clip-rule="nonzero"/></clipPath><clipPath id="80711b9b78"><path d="M 40.082031 184.433594 L 342.21875 192.683594 L 339.640625 287.148438 L 37.503906 278.898438 Z M 40.082031 184.433594 " clip-rule="nonzero"/></clipPath><clipPath id="984ff82679"><path d="M 40.082031 184.433594 L 342.21875 192.683594 L 339.640625 287.148438 L 37.503906 278.898438 Z M 40.082031 184.433594 " clip-rule="nonzero"/></clipPath><clipPath id="4550cab223"><path d="M 68 205 L 103 205 L 103 222 L 68 222 Z M 68 205 " clip-rule="nonzero"/></clipPath><clipPath id="774870de0b"><path d="M 40.082031 184.433594 L 342.21875 192.683594 L 339.640625 287.148438 L 37.503906 278.898438 Z M 40.082031 184.433594 " clip-rule="nonzero"/></clipPath><clipPath id="83bbaeef5a"><path d="M 40.082031 184.433594 L 342.21875 192.683594 L 339.640625 287.148438 L 37.503906 278.898438 Z M 40.082031 184.433594 " clip-rule="nonzero"/></clipPath><clipPath id="86e29e00d6"><path d="M 67 207 L 313 207 L 313 271 L 67 271 Z M 67 207 " clip-rule="nonzero"/></clipPath><clipPath id="45e213bed2"><path d="M 40.082031 184.433594 L 342.21875 192.683594 L 339.640625 287.148438 L 37.503906 278.898438 Z M 40.082031 184.433594 " clip-rule="nonzero"/></clipPath><clipPath id="32c4029ae4"><path d="M 40.082031 184.433594 L 342.21875 192.683594 L 339.640625 287.148438 L 37.503906 278.898438 Z M 40.082031 184.433594 " clip-rule="nonzero"/></clipPath><clipPath id="c522a8bbcf"><path d="M 80.921875 236.71875 L 106.421875 236.71875 L 106.421875 262.21875 L 80.921875 262.21875 Z M 80.921875 236.71875 " clip-rule="nonzero"/></clipPath><clipPath id="5c1e2308ac"><path d="M 275 221 L 301 221 L 301 247 L 275 247 Z M 275 221 " clip-rule="nonzero"/></clipPath><clipPath id="d582abcc9b"><path d="M 274.125 222.171875 L 299.558594 220.308594 L 301.421875 245.742188 L 275.988281 247.605469 Z M 274.125 222.171875 " clip-rule="nonzero"/></clipPath><clipPath id="d964d34207"><path d="M 274.125 222.171875 L 299.558594 220.308594 L 301.421875 245.742188 L 275.988281 247.605469 Z M 274.125 222.171875 " clip-rule="nonzero"/></clipPath><clipPath id="89c20b9db6"><path d="M 274.125 222.171875 L 299.558594 220.308594 L 301.421875 245.742188 L 275.988281 247.605469 Z M 274.125 222.171875 " clip-rule="nonzero"/></clipPath></defs><g clip-path="url(#9d396aca56)"><g clip-path="url(#bc235ce84d)"><path fill="#ffffff" d="M 80.921875 86.332031 L 294.078125 86.332031 L 294.078125 299.488281 L 80.921875 299.488281 Z M 80.921875 86.332031 " fill-opacity="1" fill-rule="nonzero"/></g></g><g clip-path="url(#c09d7fb005)"><g clip-path="url(#56dbe08c4f)"><path fill="#000000" d="M 92.589844 98 L 282.410156 98 L 282.410156 287.816406 L 92.589844 287.816406 Z M 92.589844 98 " fill-opacity="1" fill-rule="nonzero"/></g></g><path fill="#f3eff9" d="M 197.664062 174.679688 C 197.492188 175.894531 196.625 176.9375 195.546875 177.527344 C 194.472656 178.121094 193.222656 178.328125 192.007812 178.46875 C 190.863281 178.574219 189.613281 178.574219 188.675781 177.910156 C 188.085938 177.496094 187.703125 176.832031 187.425781 176.171875 C 186.589844 174.191406 186.523438 171.828125 187.390625 169.84375 C 188.257812 167.863281 190.0625 166.265625 192.179688 165.8125 C 194.296875 165.324219 196.726562 166.296875 198.152344 167.933594 C 197.25 168.871094 198.464844 173.007812 198.464844 173.007812 C 198.1875 173.21875 197.734375 174.332031 197.664062 174.679688 Z M 203.566406 148.324219 C 203.566406 148.324219 206.277344 146.898438 207.074219 145.855469 C 209.367188 142.828125 208.707031 138.585938 208.949219 138.828125 C 209.191406 139.074219 210.648438 141.265625 210.371094 144.253906 C 213.148438 141.507812 209.992188 137.371094 209.992188 137.371094 C 211.34375 138.550781 212.558594 138.796875 212.734375 140.359375 C 214.78125 136.152344 212.734375 132.917969 212.734375 132.917969 C 214.15625 133.300781 215.996094 133.199219 215.996094 133.199219 C 212.699219 132.152344 208.394531 120.679688 197.664062 113.066406 C 186.9375 105.449219 179.855469 105.867188 178.816406 107.78125 C 176.105469 106.945312 151.632812 104.824219 146.285156 130.554688 C 142.917969 146.757812 149.203125 151.519531 150.105469 157.5 C 151.007812 163.480469 148.921875 166.714844 148.921875 166.714844 L 152.011719 166.019531 C 152.011719 166.019531 150.484375 169.046875 150.519531 170.785156 C 150.519531 170.785156 151.667969 168.382812 154.511719 167.203125 C 154.511719 167.203125 153.714844 169.394531 153.367188 171.269531 C 153.226562 171.964844 153.507812 172.660156 154.097656 173.042969 C 155.101562 173.738281 156.804688 174.816406 158.402344 175.234375 C 157.117188 170.886719 159.546875 168.765625 159.546875 168.765625 C 159.546875 168.765625 159.304688 173.808594 161.386719 175.511719 C 161.316406 172.347656 162.777344 170.054688 162.777344 170.054688 C 162.777344 170.054688 162.808594 175.234375 166.039062 175.964844 " fill-opacity="1" fill-rule="nonzero"/><g clip-path="url(#ac59ad1b1c)"><path fill="#110c0e" d="M 167.808594 174.644531 L 165.96875 176 C 162.742188 175.269531 162.707031 170.089844 162.707031 170.089844 C 162.707031 170.089844 161.214844 172.417969 161.316406 175.546875 C 159.234375 173.84375 159.476562 168.800781 159.476562 168.800781 C 159.476562 168.800781 157.046875 170.921875 158.332031 175.269531 C 157.464844 175.027344 156.5625 174.609375 155.761719 174.15625 C 155.726562 169.324219 158.054688 165.601562 158.644531 164.734375 C 158.714844 164.628906 158.78125 164.558594 158.78125 164.558594 L 161.457031 159.238281 L 167.425781 162.023438 C 167.425781 161.988281 168.15625 170.296875 167.808594 174.644531 Z M 158.332031 182.050781 C 149.167969 185.144531 130.316406 192.792969 123.789062 200.375 C 118.789062 206.179688 111.152344 246.199219 110.976562 249.363281 C 110.804688 252.527344 120.769531 265.046875 120.769531 265.046875 C 125.769531 264.175781 145.488281 278.953125 145.488281 278.953125 C 163.332031 281.074219 190.0625 281.039062 223.773438 271.546875 C 224.570312 260.558594 219.882812 223.980469 219.363281 214.804688 C 219.363281 214.804688 240.957031 204.058594 246.0625 201.519531 C 250.089844 199.539062 251.234375 192.0625 251.234375 189.488281 L 237.070312 167.65625 C 237.070312 167.65625 235.472656 165.707031 232.902344 166.714844 C 210.753906 172.59375 196.484375 172.558594 190.269531 174.332031 L 178.085938 166.75 L 169.441406 176 L 166.492188 182.050781 Z M 158.332031 182.050781 " fill-opacity="1" fill-rule="nonzero"/></g><path fill="#ffffff" d="M 173.191406 144.253906 Z M 234.707031 148.984375 C 232.453125 147.871094 218.253906 140.847656 216.761719 139.941406 C 216.03125 139.492188 214.851562 138.863281 213.53125 138.203125 C 214.15625 135.109375 212.800781 132.953125 212.800781 132.953125 C 214.226562 133.335938 216.066406 133.230469 216.066406 133.230469 C 212.769531 132.1875 208.460938 120.714844 197.734375 113.101562 C 187.007812 105.484375 179.855469 105.867188 178.816406 107.78125 C 178.363281 107.640625 177.253906 107.46875 175.691406 107.398438 C 173.121094 110.179688 171.421875 112.71875 171.421875 112.71875 C 177.980469 109.171875 183.746094 111.5 186 112.71875 L 185.550781 111.953125 C 190.515625 111.640625 194.507812 115.1875 196.242188 116.996094 C 196.242188 117.132812 196.207031 117.238281 196.105469 117.238281 C 195.0625 117.238281 194.054688 117.863281 193.535156 118.769531 C 193.257812 119.253906 193.117188 119.84375 192.667969 120.191406 C 192.144531 120.609375 191.105469 120.820312 190.515625 121.0625 C 189.542969 121.515625 188.707031 122.210938 188.117188 123.042969 C 187.703125 123.636719 187.390625 124.296875 186.835938 124.78125 C 186.105469 125.410156 185.132812 125.582031 184.160156 125.617188 C 183.085938 125.6875 181.972656 125.652344 180.898438 125.511719 C 179.960938 125.375 179.058594 125.199219 178.121094 125.164062 C 175.480469 125.164062 172.808594 126.695312 170.34375 125.757812 C 168.191406 124.957031 167.046875 122.523438 164.996094 121.480469 C 164.027344 120.992188 162.949219 120.855469 161.90625 120.574219 C 160.867188 120.296875 159.789062 119.84375 159.199219 118.90625 C 158.679688 118.070312 158.609375 117.027344 158.75 116.054688 C 158.921875 114.734375 159.511719 113.484375 160.589844 112.683594 C 149.203125 116.960938 146.703125 135.421875 147.152344 136.605469 C 148.542969 134.171875 152.046875 133.09375 154.582031 134.308594 C 155.242188 134.621094 155.867188 135.074219 156.527344 135.386719 C 158.089844 136.082031 159.859375 135.910156 161.527344 135.5625 C 163.191406 135.214844 164.824219 134.691406 166.523438 134.726562 C 169.996094 134.761719 173.328125 136.988281 176.730469 136.328125 C 179.300781 135.839844 181.59375 133.71875 184.160156 134.207031 C 184.507812 131.804688 184.683594 129.40625 184.507812 126.972656 C 186.175781 128.46875 186.972656 131.007812 187.425781 133.199219 C 187.703125 132.328125 188.015625 131.492188 188.015625 130.589844 C 188.917969 131.285156 190.027344 132.1875 190.410156 133.265625 C 190.929688 132.570312 191.9375 131.875 192.804688 131.875 C 193.5 131.875 194.195312 132.121094 194.820312 131.910156 C 195.445312 131.703125 195.894531 131.144531 196.277344 130.589844 C 196 128.398438 194.507812 126.554688 193.707031 124.46875 C 195.511719 125.722656 197.527344 126.902344 199.125 128.433594 C 199.609375 128.191406 200.582031 128.121094 201.101562 128.050781 C 201.660156 127.980469 202.976562 127.21875 202.941406 126.660156 C 201.449219 124.679688 200.582031 121.269531 199.296875 118.628906 C 201.242188 120.539062 203.914062 123.496094 205.859375 127.042969 C 207.804688 130.589844 209.746094 134.34375 211.03125 136.988281 C 210.40625 136.675781 209.816406 136.328125 209.261719 136.046875 C 206.867188 134.726562 206.03125 133.960938 205.199219 134.796875 C 202.039062 133.230469 201.660156 135.386719 201.660156 135.386719 C 199.019531 135.039062 199.472656 137.160156 200.0625 138.03125 C 199.851562 138.585938 199.957031 139.210938 200.269531 139.90625 C 200.441406 142.933594 199.851562 146.339844 198.359375 147.417969 C 197.875 140.5 193.359375 134.414062 193.359375 134.414062 C 193.777344 139.144531 191.277344 144.460938 187.632812 147.417969 C 190.0625 142.792969 189.925781 138.238281 189.367188 135.527344 C 188.953125 143.628906 185.722656 148.496094 182.84375 149.46875 C 184.578125 146.652344 182.84375 137.300781 182.84375 137.300781 C 181.035156 143.351562 174.648438 148.390625 171.210938 149.714844 C 171.210938 149.714844 169.09375 150.546875 170.449219 149.085938 C 171.765625 147.625 173.015625 144.460938 173.050781 144.359375 C 172.949219 144.601562 171.386719 148.183594 163.78125 149.085938 C 161.457031 154.234375 159.546875 153.539062 156.976562 154.683594 C 152.847656 158.683594 156.527344 163.273438 160.519531 165.707031 C 164.511719 168.140625 166.003906 166.679688 166.003906 166.679688 C 166.003906 166.679688 166.386719 177.773438 165.136719 179.09375 C 163.886719 180.414062 158.191406 182.152344 158.191406 182.152344 C 165.066406 197.382812 184.648438 201.589844 190.304688 192.898438 C 196.242188 184.03125 185.097656 175.824219 185.097656 175.824219 C 185.097656 175.824219 185.097656 175.824219 185.515625 174.816406 C 185.515625 174.816406 188.222656 175.164062 190.550781 174.296875 C 193.429688 173.253906 201.867188 164.457031 202.386719 161.953125 C 202.90625 159.449219 202.003906 154.753906 203.394531 147.90625 C 203.53125 146.339844 203.289062 144.808594 202.875 143.386719 C 205.683594 146.203125 209.644531 148.949219 210.613281 149.78125 C 204.089844 149.433594 203.777344 152.042969 206.136719 152.496094 C 208.53125 152.945312 210.824219 154.652344 215.199219 157.121094 C 219.570312 159.585938 221.691406 159.03125 223.597656 157.816406 C 225.613281 157.882812 233.945312 164.144531 239.152344 166.820312 C 239.152344 166.820312 243.941406 170.332031 247.3125 170.851562 C 247.3125 170.851562 250.332031 170.644531 252.933594 166.820312 C 255.609375 162.855469 258.488281 157.570312 259.042969 153.015625 C 249.878906 151.070312 236.480469 149.851562 234.707031 148.984375 Z M 234.707031 148.984375 " fill-opacity="1" fill-rule="nonzero"/><path fill="#f3eff9" d="M 184.265625 180.691406 L 175.378906 172.3125 C 175.378906 172.3125 180.097656 173.703125 185.585938 174.78125 C 185.585938 174.78125 184.542969 178.292969 184.265625 180.691406 Z M 162.671875 158.753906 C 162.324219 157.605469 161.039062 155.066406 158.539062 155.207031 C 157.082031 155.347656 155.3125 158.859375 158.539062 162.089844 C 161.769531 165.324219 164.582031 164.558594 164.582031 164.558594 C 164.582031 164.558594 165.066406 163.03125 164.199219 161.8125 C 163.332031 160.597656 163.019531 159.902344 162.671875 158.753906 Z M 112.644531 248.566406 C 111.464844 249.640625 111.011719 251.035156 111.289062 251.730469 L 111.949219 251.484375 C 111.8125 251.136719 112.089844 250.023438 113.128906 249.085938 C 114.207031 248.113281 116.707031 246.792969 121.253906 249.015625 L 121.566406 248.390625 C 116.636719 245.957031 113.859375 247.453125 112.644531 248.566406 Z M 219.015625 214.871094 L 219.710938 214.804688 C 218.878906 208.023438 215.753906 198.914062 215.753906 198.914062 C 215.753906 198.984375 218.148438 208.128906 219.015625 214.871094 Z M 233.042969 166.960938 C 233.042969 166.960938 234.050781 168.070312 234.394531 168.664062 L 234.984375 168.316406 C 234.605469 167.65625 233.597656 166.507812 233.527344 166.472656 Z M 242.242188 196.269531 L 241.722656 196.722656 C 243.941406 199.398438 247.625 200.40625 247.761719 200.441406 L 247.9375 199.78125 C 247.9375 199.746094 244.359375 198.773438 242.242188 196.269531 Z M 223.773438 202.808594 C 223.390625 206.667969 221.445312 212.855469 221.445312 212.855469 C 225.472656 208.476562 224.78125 193.417969 224.746094 192.792969 C 224.746094 192.792969 224.292969 197.800781 223.773438 202.808594 Z M 189.019531 246.234375 C 186.589844 246.0625 184.058594 245.886719 181.59375 246.234375 C 181.59375 246.234375 185.480469 246.722656 187.355469 246.828125 C 187.875 246.859375 188.429688 246.894531 188.953125 246.929688 C 190.339844 247.035156 191.765625 247.140625 193.1875 247.140625 C 195.132812 247.140625 197.074219 246.964844 198.949219 246.304688 C 200.164062 245.886719 200.964844 245.367188 201.519531 244.636719 C 201.519531 244.636719 199.816406 245.261719 198.742188 245.644531 C 195.6875 246.6875 192.457031 246.476562 189.019531 246.234375 Z M 144.480469 223.566406 C 146.25 233.371094 147.257812 245.15625 146.703125 251.554688 C 146.527344 253.46875 146.355469 255.621094 146.179688 257.953125 L 146.875 257.988281 C 147.050781 255.65625 147.222656 253.503906 147.394531 251.589844 C 148.4375 240.046875 144.515625 212.714844 140.347656 207.605469 C 140.347656 207.640625 143.195312 216.296875 144.480469 223.566406 Z M 144.480469 223.566406 " fill-opacity="1" fill-rule="nonzero"/><g clip-path="url(#dde18ce938)"><path fill="#f3eff9" d="M 259.21875 152.945312 C 261.753906 153.46875 263.976562 154.023438 265.605469 154.617188 C 271.578125 156.875 272.308594 157.988281 273 159.414062 C 273.523438 161.570312 272.375 169.914062 263.246094 179.582031 C 254.113281 189.246094 242 196.515625 242 196.515625 C 240.226562 195.226562 237.449219 187.402344 237.589844 180.796875 C 237.730469 174.191406 234.707031 168.558594 234.707031 168.558594 L 239.324219 166.785156 C 241.617188 168.175781 244.289062 170.332031 247.484375 170.820312 C 251.199219 171.339844 257.171875 161.988281 259.21875 152.945312 M 121.359375 248.738281 L 120.144531 273.214844 C 120.144531 273.214844 129.066406 277.007812 145.453125 278.953125 L 146.527344 257.988281 C 143.820312 257.847656 133.40625 256.632812 124.066406 250.269531 C 123.128906 249.609375 122.226562 249.121094 121.394531 248.703125 M 166.941406 155.171875 C 166.941406 155.171875 167.808594 157.5 179.441406 156.839844 C 179.441406 156.839844 181.871094 153.988281 181.523438 152.425781 C 179.542969 150.929688 176.140625 149.851562 174.199219 150.234375 C 172.289062 150.652344 165.621094 153.574219 166.941406 155.171875 Z M 191.660156 152.425781 C 191.242188 153.328125 191.660156 154.894531 191.660156 154.894531 C 191.660156 154.894531 196.347656 156.144531 199.714844 154.894531 C 201.101562 154.128906 201.519531 150.789062 201.242188 149.644531 C 200.652344 147.035156 193.359375 147.871094 191.660156 152.425781 Z M 191.660156 152.425781 " fill-opacity="1" fill-rule="nonzero"/></g><path fill="#110c0e" d="M 164.234375 149.191406 L 163.644531 148.84375 C 165.101562 146.445312 166.835938 140.1875 166.835938 140.1875 C 166.769531 140.429688 165.761719 146.6875 164.234375 149.191406 Z M 157.011719 154.304688 L 157.253906 154.964844 C 158.4375 154.511719 159.824219 148.878906 159.894531 146.132812 C 159.894531 146.132812 157.636719 153.988281 157.011719 154.304688 Z M 172.914062 144.046875 L 173.503906 144.429688 C 175.445312 141.507812 176.070312 136.988281 176.105469 136.777344 C 176.070312 136.8125 174.753906 141.265625 172.914062 144.046875 Z M 185.339844 129.511719 C 185.339844 129.511719 185.964844 134.03125 186.035156 136.710938 C 186.105469 139.246094 185.6875 143.664062 185.6875 143.664062 C 187.355469 140.289062 186.902344 132.710938 185.339844 129.511719 Z M 195.757812 127.007812 C 195.792969 127.078125 199.296875 134.242188 199.4375 136.117188 L 200.128906 136.082031 C 199.992188 134.03125 195.757812 127.007812 195.757812 127.007812 Z M 181.871094 109.691406 C 183.570312 111.082031 185.550781 112.441406 185.550781 112.441406 C 185.410156 112.230469 181.800781 107.710938 178.816406 107.398438 L 178.746094 108.09375 C 179.195312 108.128906 179.648438 108.300781 180.132812 108.546875 C 176.59375 108.40625 172.078125 111.429688 170.585938 113.136719 C 170.585938 113.136719 173.433594 111.535156 175.203125 110.632812 C 177.496094 109.484375 180.132812 108.753906 181.871094 109.691406 Z M 181.523438 112.683594 C 180.65625 112.71875 179.71875 113.414062 178.675781 114.734375 C 176.417969 117.65625 174.335938 123.113281 174.511719 123.984375 C 174.511719 123.984375 176.070312 120.679688 177.390625 118.140625 C 178.015625 116.925781 178.746094 115.707031 179.472656 114.839844 C 180.238281 113.898438 181.523438 112.683594 181.523438 112.683594 Z M 196.726562 115.777344 C 194.160156 111.777344 189.054688 110.527344 187.007812 110.769531 C 187.007812 110.769531 190.269531 111.675781 192.320312 112.753906 C 193.777344 113.515625 196.726562 115.777344 196.726562 115.777344 Z M 151.214844 166.296875 L 151.769531 166.714844 C 153.296875 164.59375 154.652344 163.167969 154.652344 163.167969 C 154.582031 163.203125 152.882812 164.003906 151.214844 166.296875 Z M 213.078125 132.746094 C 212.003906 130.972656 210.546875 129.476562 210.476562 129.40625 C 210.476562 129.40625 211.449219 131.390625 212.488281 133.09375 Z M 208.082031 132.46875 C 208.082031 132.46875 205.683594 128.503906 203.878906 125.6875 C 203.636719 125.304688 203.359375 124.886719 203.117188 124.503906 C 202.214844 123.113281 199.886719 120.855469 199.886719 120.855469 C 200.6875 122.035156 201.625 123.496094 202.527344 124.886719 C 204.78125 128.398438 206.902344 131.738281 208.082031 132.46875 Z M 185.652344 174.710938 L 185.6875 174.363281 C 184.023438 174.226562 177.910156 173.042969 177.84375 173.007812 C 177.84375 173.007812 182.980469 174.609375 185.132812 174.992188 C 184.402344 176.972656 183.710938 183.195312 183.640625 184.933594 C 183.640625 184.933594 185.410156 175.546875 185.898438 174.992188 C 185.898438 174.992188 185.898438 174.992188 185.863281 175.027344 Z M 164.058594 161.082031 C 163.78125 160.734375 163.503906 160.386719 163.332031 160.003906 C 163.191406 159.691406 163.121094 159.308594 163.054688 158.925781 C 163.019531 158.71875 162.984375 158.511719 162.914062 158.335938 C 162.671875 157.328125 162.117188 156.457031 161.421875 155.867188 C 160.589844 155.207031 159.511719 154.964844 158.574219 155.207031 C 158.574219 155.207031 160.34375 155.902344 161.003906 156.421875 C 161.59375 156.910156 162.046875 157.640625 162.253906 158.511719 C 162.289062 158.683594 162.324219 158.890625 162.359375 159.066406 C 162.429688 159.484375 162.53125 159.902344 162.707031 160.285156 C 162.914062 160.769531 163.226562 161.152344 163.539062 161.535156 C 163.746094 161.777344 163.921875 162.023438 164.09375 162.300781 C 164.441406 162.855469 164.617188 164.558594 164.617188 164.558594 C 165.34375 163.863281 165.171875 162.71875 164.683594 161.917969 C 164.476562 161.640625 164.269531 161.359375 164.058594 161.082031 Z M 223.53125 157.46875 L 223.980469 158.023438 C 224.988281 157.222656 225.40625 156.804688 225.4375 156.769531 C 225.40625 156.769531 224.5 156.703125 223.53125 157.46875 Z M 210.925781 149.433594 L 210.582031 150.0625 C 210.960938 150.269531 211.238281 150.929688 211.550781 151.554688 C 211.933594 152.390625 212.316406 153.257812 213.011719 153.675781 C 213.011719 153.675781 212.523438 152.007812 212.175781 151.277344 C 211.832031 150.476562 211.484375 149.746094 210.925781 149.433594 Z M 205.511719 134.96875 C 205.511719 135.003906 205.476562 135.039062 205.441406 135.074219 L 205.128906 134.449219 C 204.957031 134.554688 204.851562 134.726562 204.816406 134.96875 C 204.78125 135.769531 205.996094 137.4375 209.191406 139.804688 C 210.300781 140.601562 213.566406 141.890625 213.566406 141.890625 C 206.691406 137.683594 205.441406 135.316406 205.511719 134.96875 Z M 202.109375 135.285156 L 201.414062 135.386719 C 201.660156 136.988281 204.679688 139.039062 208.566406 141.578125 C 209.921875 142.445312 212.210938 143.246094 212.210938 143.246094 C 211.519531 142.691406 210.335938 141.890625 208.949219 141.019531 C 206.136719 139.179688 202.316406 136.675781 202.109375 135.285156 Z M 205.617188 142.027344 C 203.53125 140.5 200.722656 138.378906 200.511719 137.890625 C 200.511719 137.890625 200.511719 137.890625 200.511719 137.925781 L 199.816406 138.03125 C 199.886719 138.585938 201.242188 139.664062 205.199219 142.585938 C 207.039062 143.941406 210.058594 145.539062 210.058594 145.539062 C 209.367188 144.84375 207.558594 143.488281 205.617188 142.027344 Z M 191.175781 158.890625 C 190.445312 157.605469 188.570312 155.136719 188.570312 155.136719 C 189.125 156.527344 189.820312 157.917969 190.550781 159.238281 Z M 183.882812 166.507812 C 183.988281 166.542969 185.410156 166.925781 187.179688 166.925781 C 189.019531 166.925781 191.242188 166.507812 192.804688 164.839844 C 192.804688 164.839844 189.855469 165.949219 188.5 166.125 C 186.210938 166.402344 183.882812 166.507812 183.882812 166.507812 Z M 249.253906 172.3125 C 249.253906 172.3125 249.464844 173.496094 249.878906 173.808594 C 250.332031 174.121094 253.179688 174.710938 253.179688 174.710938 C 252.273438 174.363281 249.914062 173.042969 249.253906 172.3125 Z M 248.90625 170.75 C 248.628906 170.714844 248.386719 170.644531 248.109375 170.574219 C 247.832031 170.75 247.519531 170.921875 247.207031 171.0625 C 248.628906 171.445312 253.074219 172.3125 254.878906 172.3125 C 255.019531 172.3125 255.15625 172.3125 255.261719 172.3125 C 255.226562 172.3125 249.949219 170.921875 248.90625 170.75 Z M 225.71875 154.546875 C 223.875 154.683594 221.828125 153.816406 220.128906 152.632812 C 219.191406 151.972656 217.175781 150.824219 217.175781 150.824219 C 218.945312 153.015625 222.316406 155.242188 225.335938 155.242188 C 225.472656 155.242188 225.648438 155.242188 225.785156 155.242188 C 227.695312 155.101562 229.222656 154.058594 230.335938 152.148438 C 230.335938 152.148438 228.460938 153.539062 227.625 153.988281 C 227.035156 154.304688 226.410156 154.476562 225.71875 154.546875 Z M 210.058594 146.582031 C 210.058594 146.582031 213.183594 143.003906 216.066406 141.714844 C 216.066406 141.714844 211.273438 142.933594 210.058594 146.582031 Z M 166.628906 166.925781 L 166.457031 166.472656 L 165.796875 166.714844 L 165.96875 167.167969 C 166.28125 168.003906 166.421875 168.351562 166.871094 169.011719 C 167.394531 169.777344 168.398438 170.367188 168.46875 170.402344 C 168.46875 170.402344 167.914062 169.289062 167.460938 168.628906 C 167.046875 168.035156 166.941406 167.722656 166.628906 166.925781 Z M 172.390625 154.753906 C 171.246094 154.753906 170.203125 154.304688 169.40625 153.574219 C 169.441406 154.789062 169.859375 155.902344 170.515625 156.667969 C 171.558594 156.839844 172.914062 156.945312 174.648438 156.980469 C 175.515625 156.179688 176.105469 154.859375 176.105469 153.363281 C 176.105469 153.121094 176.070312 152.910156 176.070312 152.667969 C 175.34375 153.921875 173.953125 154.753906 172.390625 154.753906 Z M 196.589844 150.164062 C 196.589844 152.148438 194.921875 153.746094 192.839844 153.746094 C 192.355469 153.746094 191.902344 153.640625 191.453125 153.503906 C 191.453125 154.234375 191.625 154.894531 191.625 154.894531 C 191.625 154.894531 193.742188 155.449219 196.136719 155.449219 C 196.761719 154.652344 197.179688 153.539062 197.179688 152.320312 C 197.179688 151.382812 196.972656 150.511719 196.554688 149.816406 C 196.589844 149.921875 196.589844 150.027344 196.589844 150.164062 Z M 196.589844 150.164062 " fill-opacity="1" fill-rule="nonzero"/><g clip-path="url(#8c077af8ad)"><path fill="#110c0e" d="M 273.3125 159.34375 L 273.277344 159.273438 C 272.515625 157.675781 271.613281 156.527344 265.710938 154.304688 C 261.09375 152.5625 251.859375 151.3125 244.429688 150.269531 C 239.742188 149.644531 235.714844 149.085938 234.882812 148.671875 C 234.394531 148.425781 233.355469 147.90625 232.035156 147.246094 C 227.175781 144.84375 218.113281 140.359375 216.96875 139.664062 C 216.273438 139.246094 215.164062 138.65625 213.949219 138.03125 C 214.296875 135.945312 213.808594 134.308594 213.460938 133.441406 C 214.746094 133.648438 216.066406 133.578125 216.136719 133.578125 L 217.976562 133.476562 L 216.238281 132.917969 C 215.023438 132.535156 213.460938 130.3125 211.519531 127.566406 C 208.53125 123.289062 204.402344 117.410156 197.976562 112.855469 C 189.785156 107.015625 183.535156 105.730469 180.410156 106.425781 C 179.613281 106.597656 178.988281 106.945312 178.640625 107.363281 C 176.558594 106.875 167.289062 106.007812 158.816406 111.015625 C 152.117188 114.976562 147.777344 121.515625 145.902344 130.484375 C 143.472656 142.167969 145.972656 147.90625 147.984375 152.53125 C 148.785156 154.335938 149.480469 155.902344 149.722656 157.570312 C 150.625 163.34375 148.644531 166.542969 148.609375 166.542969 L 148.160156 167.273438 L 151.386719 166.542969 C 151.042969 167.339844 150.484375 168.871094 150.140625 170.75 L 149.6875 173.253906 L 150.796875 170.957031 C 150.796875 170.921875 151.734375 169.082031 153.886719 167.898438 C 153.609375 168.699219 153.226562 170.019531 152.984375 171.234375 C 152.847656 172.070312 153.160156 172.90625 153.851562 173.355469 C 154.964844 174.15625 156.664062 175.164062 158.261719 175.582031 L 158.851562 175.722656 L 158.679688 175.128906 C 157.878906 172.417969 158.574219 170.644531 159.128906 169.742188 C 159.164062 171.339844 159.476562 174.433594 161.109375 175.789062 L 161.699219 176.277344 L 161.664062 175.511719 C 161.628906 173.773438 162.082031 172.277344 162.464844 171.339844 C 162.671875 172.941406 163.402344 175.546875 165.585938 176.242188 C 165.449219 177.527344 165.273438 178.46875 164.996094 178.746094 C 164.027344 179.789062 159.753906 181.25 158.191406 181.703125 L 157.8125 181.804688 C 147.882812 185.179688 129.863281 192.6875 123.476562 200.128906 C 118.476562 206.007812 110.804688 246.269531 110.632812 249.363281 C 110.457031 252.390625 118.652344 262.960938 120.246094 264.976562 L 119.832031 273.460938 L 120.039062 273.5625 C 120.144531 273.597656 130.039062 277.738281 147.675781 279.578125 C 152.570312 280.101562 158.402344 280.449219 165.066406 280.449219 C 180.515625 280.449219 200.476562 278.5 223.84375 271.929688 L 224.085938 271.859375 L 224.121094 271.617188 C 224.675781 264.140625 222.660156 244.636719 221.203125 230.378906 C 220.507812 223.773438 219.917969 218.035156 219.746094 215.046875 C 221.96875 213.933594 241.445312 204.234375 246.234375 201.867188 C 250.019531 199.992188 251.371094 193.59375 251.582031 190.324219 C 255.363281 187.472656 259.667969 183.855469 263.488281 179.824219 C 272.339844 170.402344 273.9375 161.953125 273.3125 159.34375 Z M 216.585938 140.222656 C 217.765625 140.949219 226.828125 145.4375 231.6875 147.835938 C 233.042969 148.496094 234.050781 149.019531 234.535156 149.261719 C 235.472656 149.746094 239.1875 150.234375 244.324219 150.929688 C 248.976562 151.554688 254.324219 152.285156 258.765625 153.191406 C 256.648438 162.125 250.921875 170.921875 247.484375 170.4375 C 245.472656 170.15625 242.832031 168.523438 240.679688 167.203125 C 240.472656 167.0625 240.261719 166.925781 240.054688 166.820312 L 240.125 166.785156 L 239.429688 166.4375 C 237.207031 165.289062 234.429688 163.515625 231.757812 161.8125 C 228.113281 159.484375 224.953125 157.433594 223.703125 157.398438 L 223.597656 157.398438 L 223.496094 157.46875 C 221.863281 158.511719 219.882812 159.308594 215.441406 156.769531 C 214.328125 156.144531 213.324219 155.554688 212.457031 155.03125 C 209.851562 153.46875 208.117188 152.460938 206.308594 152.113281 C 205.652344 151.972656 205.199219 151.660156 205.234375 151.347656 C 205.304688 150.757812 206.832031 149.921875 210.683594 150.09375 L 211.691406 150.164062 L 210.925781 149.503906 C 210.648438 149.261719 210.164062 148.878906 209.539062 148.390625 C 206.554688 146.097656 199.539062 140.777344 200.476562 138.101562 L 200.546875 137.925781 L 200.441406 137.785156 C 200.128906 137.371094 199.886719 136.535156 200.164062 136.046875 C 200.441406 135.597656 201.136719 135.597656 201.691406 135.664062 L 202.003906 135.699219 L 202.074219 135.386719 C 202.074219 135.351562 202.179688 134.867188 202.664062 134.65625 C 203.1875 134.378906 204.054688 134.519531 205.128906 135.074219 L 205.339844 135.179688 L 205.511719 135.003906 C 205.996094 134.519531 206.449219 134.726562 208.082031 135.699219 C 208.394531 135.875 208.742188 136.082031 209.15625 136.328125 C 210.269531 136.953125 211.65625 137.648438 212.976562 138.34375 C 214.433594 139.039062 215.824219 139.769531 216.585938 140.222656 Z M 198.394531 168.140625 C 200.6875 165.671875 202.628906 163.132812 202.875 161.953125 C 203.082031 160.980469 203.082031 159.691406 203.046875 158.058594 C 203.046875 155.695312 203.011719 152.496094 203.707031 148.636719 C 203.8125 148.566406 205.371094 147.730469 206.484375 146.863281 C 207.316406 147.558594 208.21875 148.21875 209.121094 148.914062 C 209.332031 149.050781 209.503906 149.226562 209.679688 149.332031 C 209.644531 149.332031 209.609375 149.332031 209.574219 149.332031 C 206.066406 149.332031 204.679688 150.269531 204.539062 151.207031 C 204.46875 151.9375 205.09375 152.5625 206.171875 152.738281 C 207.871094 153.050781 209.574219 154.058594 212.109375 155.589844 C 212.976562 156.109375 213.984375 156.703125 215.128906 157.363281 C 219.398438 159.796875 221.621094 159.449219 223.808594 158.09375 C 224.953125 158.230469 228.25 160.351562 231.410156 162.371094 C 233.839844 163.933594 236.304688 165.535156 238.457031 166.679688 L 237.105469 167.203125 C 236.546875 166.679688 234.984375 165.566406 232.800781 166.402344 C 218.703125 170.125 207.976562 171.445312 200.164062 172.417969 C 199.679688 172.488281 199.195312 172.523438 198.707031 172.59375 C 198.289062 170.957031 197.910156 168.664062 198.394531 168.140625 Z M 203.636719 144.394531 C 204.367188 145.054688 205.128906 145.714844 205.964844 146.410156 C 205.269531 146.929688 204.402344 147.453125 203.878906 147.730469 C 203.984375 146.6875 203.878906 145.574219 203.636719 144.394531 Z M 163.089844 170.089844 L 163.089844 168.90625 L 162.464844 169.914062 C 162.394531 170.019531 161.214844 171.929688 161.039062 174.679688 C 159.71875 172.730469 159.894531 168.871094 159.894531 168.835938 L 159.929688 168.035156 L 159.304688 168.558594 C 159.199219 168.664062 156.941406 170.644531 157.878906 174.746094 C 156.457031 174.261719 155.035156 173.320312 154.269531 172.800781 C 153.820312 172.488281 153.574219 171.894531 153.679688 171.375 C 154.027344 169.53125 154.824219 167.375 154.824219 167.375 L 155.101562 166.644531 L 154.375 166.960938 C 152.949219 167.550781 151.910156 168.453125 151.25 169.21875 C 151.734375 167.445312 152.324219 166.296875 152.324219 166.265625 L 152.671875 165.601562 L 149.582031 166.296875 C 150.171875 165.046875 151.144531 162.054688 150.453125 157.535156 C 150.171875 155.761719 149.480469 154.164062 148.644531 152.320312 C 146.667969 147.800781 144.203125 142.167969 146.597656 130.730469 C 148.4375 121.964844 152.671875 115.570312 159.199219 111.710938 C 167.289062 106.945312 176.765625 107.570312 178.710938 108.199219 L 178.988281 108.265625 L 179.128906 108.023438 C 179.335938 107.640625 179.855469 107.363281 180.585938 107.1875 C 183.570312 106.527344 189.578125 107.816406 197.527344 113.449219 C 203.84375 117.933594 207.90625 123.738281 210.894531 127.980469 C 212.457031 130.207031 213.703125 131.980469 214.816406 132.953125 C 214.226562 132.917969 213.496094 132.847656 212.871094 132.675781 L 212.003906 132.433594 L 212.488281 133.199219 C 212.488281 133.230469 213.636719 135.074219 213.253906 137.753906 C 211.933594 137.089844 210.613281 136.394531 209.503906 135.769531 C 209.121094 135.5625 208.773438 135.351562 208.460938 135.179688 C 206.933594 134.308594 206.066406 133.789062 205.234375 134.449219 C 204.054688 133.894531 203.082031 133.789062 202.351562 134.171875 C 201.867188 134.414062 201.625 134.832031 201.519531 135.109375 C 200.375 135.003906 199.851562 135.457031 199.609375 135.839844 C 199.160156 136.570312 199.472656 137.613281 199.816406 138.167969 C 199.679688 138.761719 199.75 139.421875 200.0625 140.117188 C 200.199219 142.96875 199.679688 145.539062 198.777344 146.757812 C 198.046875 140.152344 193.953125 134.554688 193.777344 134.308594 L 193.046875 133.335938 L 193.152344 134.554688 C 193.5 138.480469 191.765625 143.003906 188.847656 146.0625 C 190.722656 141.472656 190.203125 137.265625 189.890625 135.5625 L 189.332031 132.816406 L 189.195312 135.597656 C 188.847656 142.585938 186.277344 147.347656 183.710938 148.84375 C 184.820312 145.296875 183.433594 137.648438 183.363281 137.300781 L 183.085938 135.875 L 182.667969 137.265625 C 180.828125 143.488281 174.335938 148.253906 171.246094 149.433594 C 171.039062 149.503906 170.828125 149.574219 170.65625 149.609375 C 170.726562 149.539062 170.796875 149.433594 170.863281 149.332031 C 172.183594 147.871094 173.433594 144.808594 173.539062 144.496094 C 173.539062 144.496094 173.539062 144.460938 173.539062 144.460938 L 172.878906 144.21875 C 172.808594 144.359375 171.28125 147.871094 163.886719 148.738281 L 163.679688 148.773438 L 163.609375 148.949219 C 161.871094 152.808594 160.449219 153.226562 158.644531 153.78125 C 158.125 153.953125 157.566406 154.09375 156.976562 154.371094 L 156.910156 154.40625 L 156.875 154.441406 C 155.449219 155.832031 154.789062 157.398438 154.964844 159.066406 C 155.242188 161.5 157.289062 164.074219 160.449219 166.019531 C 163.296875 167.757812 164.996094 167.585938 165.796875 167.273438 C 165.867188 169.808594 165.867188 173.183594 165.65625 175.617188 C 163.15625 174.539062 163.089844 170.125 163.089844 170.089844 Z M 165.554688 179.234375 C 166.835938 177.84375 166.523438 167.722656 166.492188 166.578125 L 166.457031 165.8125 L 165.898438 166.332031 C 165.898438 166.332031 164.476562 167.550781 160.832031 165.324219 C 158.539062 163.933594 155.972656 161.5 155.695312 158.890625 C 155.519531 157.46875 156.074219 156.109375 157.324219 154.894531 C 157.847656 154.652344 158.367188 154.511719 158.851562 154.335938 C 160.625 153.78125 162.324219 153.257812 164.164062 149.296875 C 167.046875 148.914062 169.058594 148.183594 170.449219 147.382812 C 170.726562 147.347656 171.039062 147.277344 171.351562 147.246094 C 171.039062 147.800781 170.65625 148.355469 170.308594 148.738281 C 169.925781 149.15625 169.613281 149.609375 169.859375 149.957031 C 170.066406 150.269531 170.621094 150.269531 171.453125 149.921875 C 172.667969 149.46875 174.40625 148.460938 176.175781 147.035156 C 177.042969 147.070312 177.980469 147.175781 178.953125 147.3125 C 179.683594 147.210938 180.480469 146.0625 180.480469 146.0625 C 180.480469 146.0625 179.265625 145.921875 177.597656 145.820312 C 179.71875 143.871094 181.695312 141.402344 182.84375 138.621094 C 183.222656 141.296875 183.917969 147.140625 182.667969 149.226562 L 182.183594 150.027344 L 183.085938 149.714844 C 185.621094 148.878906 188.429688 145.226562 189.472656 138.96875 C 189.472656 141.230469 189.019531 144.148438 187.425781 147.175781 L 186.625 148.671875 L 187.945312 147.59375 C 191.453125 144.742188 193.777344 139.90625 193.847656 135.527344 C 194.820312 137.058594 196.625 140.1875 197.5625 143.90625 L 190.894531 145.507812 C 190.894531 145.507812 191.589844 146.6875 192.667969 146.617188 C 193.292969 146.582031 195.582031 145.714844 197.839844 145.160156 C 197.945312 145.785156 198.046875 146.445312 198.117188 147.105469 C 196.347656 147.210938 194.402344 147.90625 192.910156 149.957031 C 192.285156 150.546875 191.695312 151.3125 191.347656 152.25 C 190.894531 153.226562 191.3125 154.859375 191.3125 154.929688 L 191.347656 155.136719 L 191.554688 155.171875 C 191.660156 155.207031 193.707031 155.726562 196.105469 155.726562 C 196.519531 155.796875 196.902344 155.832031 197.25 155.832031 C 197.839844 155.832031 198.324219 155.726562 198.742188 155.625 C 199.714844 155.3125 200.0625 154.546875 200.0625 154.546875 C 200.0625 154.546875 199.296875 154.789062 198.359375 155.03125 C 197.910156 155.136719 197.386719 155.207031 196.726562 155.136719 C 197.214844 154.304688 197.492188 153.328125 197.492188 152.25 C 197.492188 151 197.074219 149.78125 196.417969 148.914062 C 197.804688 148.53125 199.472656 148.601562 201.242188 149.609375 L 202.699219 147.941406 C 202.699219 147.941406 201.171875 147.246094 199.195312 147.105469 C 199.679688 146.515625 200.027344 145.714844 200.269531 144.777344 C 200.929688 144.742188 201.519531 144.777344 201.972656 144.984375 C 201.519531 144.460938 200.964844 144.082031 200.476562 143.835938 C 200.652344 143.003906 200.722656 142.0625 200.722656 141.160156 C 201.242188 141.890625 201.902344 142.65625 202.699219 143.453125 C 203.117188 144.949219 203.289062 146.410156 203.1875 147.730469 C 202.316406 152.007812 202.351562 155.484375 202.351562 158.023438 C 202.351562 159.585938 202.351562 160.839844 202.179688 161.777344 C 201.9375 162.855469 200.097656 165.253906 197.875 167.621094 C 197.875 167.621094 197.875 167.65625 197.839844 167.65625 C 195.199219 170.503906 192.042969 173.320312 190.515625 173.878906 C 188.292969 174.679688 185.652344 174.363281 185.621094 174.363281 L 185.339844 174.332031 L 184.75 175.824219 L 184.960938 176 C 185.0625 176.070312 195.792969 184.101562 190.097656 192.585938 C 188.085938 195.679688 184.125 197.210938 179.230469 196.828125 C 172.148438 196.269531 163.121094 191.578125 158.75 182.222656 C 160.136719 181.839844 164.441406 180.414062 165.554688 179.234375 Z M 195.167969 153.398438 C 196.105469 152.84375 196.519531 152.078125 196.726562 151.347656 C 196.796875 151.660156 196.796875 151.972656 196.796875 152.285156 C 196.796875 153.328125 196.484375 154.335938 195.964844 155.066406 C 194.125 155.066406 192.492188 154.71875 191.902344 154.582031 C 191.867188 154.40625 191.832031 154.199219 191.796875 153.957031 C 192.042969 154.023438 192.355469 154.058594 192.734375 154.058594 C 192.945312 154.058594 193.1875 154.058594 193.394531 154.023438 C 193.570312 154.304688 193.882812 154.652344 194.472656 154.546875 C 195.132812 154.476562 195.199219 153.816406 195.167969 153.398438 Z M 194.644531 152.910156 C 193.328125 153.574219 192.285156 153.363281 191.832031 153.257812 C 191.832031 153.015625 191.902344 152.773438 191.972656 152.5625 C 192.179688 151.972656 192.492188 151.453125 192.875 151.035156 C 193.605469 150.375 194.574219 149.644531 195.722656 149.191406 C 195.929688 149.398438 196.070312 149.644531 196.242188 149.886719 C 196.277344 150.269531 196.3125 152.078125 194.644531 152.910156 Z M 198.011719 172.695312 C 195.964844 172.941406 194.125 173.21875 192.597656 173.496094 C 194.019531 172.453125 195.792969 170.820312 197.457031 169.113281 C 197.457031 170.296875 197.804688 171.894531 198.011719 172.695312 Z M 120.527344 272.972656 L 120.941406 264.90625 L 121.046875 264.835938 C 121.011719 264.800781 120.976562 264.769531 120.976562 264.734375 L 121.742188 249.226562 C 122.433594 249.609375 123.164062 250.023438 123.894531 250.511719 C 133.476562 257.046875 143.925781 258.125 146.214844 258.300781 L 145.175781 278.570312 C 130.628906 276.796875 121.984375 273.5625 120.527344 272.972656 Z M 245.921875 201.242188 C 240.851562 203.746094 219.433594 214.421875 219.226562 214.523438 L 219.015625 214.628906 L 219.015625 214.871094 C 219.191406 217.828125 219.78125 223.703125 220.476562 230.484375 C 221.933594 244.53125 223.910156 263.722656 223.425781 271.339844 C 190.203125 280.65625 163.957031 280.589844 147.777344 278.917969 C 147.117188 278.847656 146.457031 278.78125 145.832031 278.710938 L 146.910156 258.058594 L 146.5625 258.023438 L 146.597656 257.675781 C 145.382812 257.605469 134.34375 256.839844 124.308594 249.992188 C 123.371094 249.363281 122.46875 248.808594 121.601562 248.390625 L 121.117188 248.148438 L 120.316406 263.898438 C 117.191406 259.898438 111.222656 251.695312 111.324219 249.398438 C 111.5 246.339844 119.066406 206.386719 124.03125 200.617188 C 130.351562 193.28125 148.296875 185.804688 158.125 182.5 C 162.601562 192.132812 171.90625 197.035156 179.195312 197.589844 C 179.683594 197.625 180.203125 197.660156 180.65625 197.660156 C 185.132812 197.660156 188.742188 196.027344 190.6875 193.035156 C 196.277344 184.691406 187.148438 176.902344 185.621094 175.652344 L 185.828125 175.128906 C 186.523438 175.199219 188.5 175.269531 190.339844 174.710938 C 192.5625 174.085938 195.929688 173.667969 200.199219 173.148438 C 208.046875 172.175781 218.808594 170.851562 232.972656 167.097656 L 233.007812 167.097656 C 234.605469 166.472656 235.785156 167.0625 236.375 167.515625 L 234.1875 168.351562 L 234.363281 168.699219 C 234.394531 168.765625 237.3125 174.332031 237.207031 180.761719 C 237.070312 187.542969 239.917969 195.4375 241.757812 196.792969 L 241.929688 196.929688 L 242.136719 196.828125 C 242.207031 196.792969 245.957031 194.53125 250.816406 190.882812 C 250.539062 194.113281 249.21875 199.609375 245.921875 201.242188 Z M 262.96875 179.335938 C 254.636719 188.167969 243.664062 195.054688 242 196.0625 C 240.296875 194.460938 237.761719 187.023438 237.902344 180.761719 C 238.007812 175.0625 235.785156 170.054688 235.160156 168.699219 L 239.257812 167.132812 C 239.605469 167.339844 239.949219 167.550781 240.332031 167.792969 C 242.519531 169.148438 245.226562 170.851562 247.378906 171.132812 C 247.519531 171.167969 247.625 171.167969 247.761719 171.167969 C 251.894531 171.167969 257.484375 161.675781 259.460938 153.328125 C 261.820312 153.816406 263.90625 154.335938 265.46875 154.929688 C 271.472656 157.1875 272.027344 158.265625 272.652344 159.519531 C 273.210938 161.988281 271.542969 170.261719 262.96875 179.335938 Z M 169.09375 153.675781 C 169.128906 154.617188 169.40625 155.519531 169.859375 156.25 C 169.71875 156.214844 169.546875 156.179688 169.40625 156.144531 C 168.226562 155.867188 167.425781 155.761719 167.425781 155.761719 C 167.425781 155.761719 167.984375 156.492188 169.128906 156.769531 C 170.449219 157.121094 172.425781 157.46875 174.824219 157.46875 C 175.65625 157.46875 177.390625 156.910156 177.390625 156.910156 C 177.390625 156.910156 176.105469 156.804688 175.308594 156.769531 C 176.039062 155.867188 176.488281 154.652344 176.488281 153.328125 C 176.488281 152.53125 176.351562 151.800781 176.039062 151.105469 C 179.300781 150.894531 181.175781 152.285156 181.523438 152.390625 C 177.53125 145.089844 164.71875 153.292969 164.71875 153.292969 L 166.941406 155.136719 C 167.707031 154.617188 168.398438 154.128906 169.09375 153.675781 Z M 174.542969 156.632812 C 173.085938 156.597656 171.800781 156.492188 170.726562 156.320312 C 170.308594 155.796875 169.996094 155.101562 169.859375 154.371094 C 170.273438 154.652344 170.863281 154.929688 171.59375 155.066406 C 172.046875 156.144531 173.433594 155.660156 173.640625 154.894531 C 174.578125 154.617188 175.308594 154.09375 175.792969 153.675781 C 175.691406 154.859375 175.273438 155.902344 174.542969 156.632812 Z M 169.753906 153.257812 C 171.871094 152.007812 173.746094 151.417969 175.308594 151.207031 C 175.515625 151.660156 175.691406 152.183594 175.726562 152.738281 C 175.378906 153.121094 174.300781 154.199219 172.703125 154.40625 C 171.109375 154.617188 170.03125 153.710938 169.71875 153.433594 C 169.71875 153.433594 169.71875 153.398438 169.71875 153.398438 C 169.753906 153.328125 169.753906 153.292969 169.753906 153.257812 Z M 169.753906 153.257812 " fill-opacity="1" fill-rule="nonzero"/></g><g clip-path="url(#01691b0101)"><g clip-path="url(#0e6a5e0a4b)"><g clip-path="url(#e092709a82)"><path fill="#ffffff" d="M 279.679688 190.984375 C 300.503906 191.660156 321.257812 194.800781 341.898438 202.152344 C 336.144531 208.347656 330.386719 214.847656 324.617188 221.617188 C 329.9375 231.316406 335.246094 241.285156 340.546875 251.558594 C 319.910156 244.207031 299.152344 241.066406 278.332031 240.390625 C 278.78125 223.921875 279.230469 207.453125 279.679688 190.984375 " fill-opacity="1" fill-rule="nonzero"/></g></g></g><g clip-path="url(#fbe47c7ccb)"><g clip-path="url(#4c8ec5afa9)"><g clip-path="url(#75a5c1f533)"><path fill="#000000" d="M 279.679688 190.984375 C 290.503906 196.726562 301.3125 203.15625 312.09375 210.523438 C 301.164062 208.542969 290.210938 207.5 279.238281 207.148438 C 279.386719 201.757812 279.535156 196.371094 279.679688 190.984375 " fill-opacity="1" fill-rule="nonzero"/></g></g></g><g clip-path="url(#e94621398e)"><g clip-path="url(#80711b9b78)"><g clip-path="url(#984ff82679)"><path fill="#ffffff" d="M 102.082031 205.070312 C 81.257812 204.394531 60.503906 201.253906 39.863281 193.902344 C 45.167969 204.039062 50.484375 213.871094 55.804688 223.4375 C 50.035156 230.339844 44.269531 236.976562 38.515625 243.308594 C 59.15625 250.660156 79.910156 253.800781 100.730469 254.476562 C 101.183594 238.007812 101.632812 221.539062 102.082031 205.070312 " fill-opacity="1" fill-rule="nonzero"/></g></g></g><g clip-path="url(#4550cab223)"><g clip-path="url(#774870de0b)"><g clip-path="url(#83bbaeef5a)"><path fill="#000000" d="M 102.082031 205.070312 C 90.960938 210.101562 79.859375 214.449219 68.785156 217.855469 C 79.714844 219.835938 90.667969 220.878906 101.640625 221.234375 C 101.785156 215.84375 101.933594 210.457031 102.082031 205.070312 " fill-opacity="1" fill-rule="nonzero"/></g></g></g><g clip-path="url(#86e29e00d6)"><g clip-path="url(#45e213bed2)"><g clip-path="url(#32c4029ae4)"><path fill="#ffffff" d="M 68.644531 217.832031 C 149.375 232.519531 231.503906 195.859375 312.234375 210.546875 C 311.785156 227.015625 311.335938 243.488281 310.882812 259.953125 C 230.15625 245.265625 148.027344 281.925781 67.296875 267.238281 C 67.746094 250.769531 68.195312 234.300781 68.644531 217.832031 " fill-opacity="1" fill-rule="nonzero"/></g></g></g><g clip-path="url(#c522a8bbcf)"><path fill="#000000" d="M 93.257812 236.71875 L 94.078125 236.71875 L 94.078125 238.367188 L 94.898438 238.367188 L 94.898438 241.65625 L 95.71875 241.65625 L 95.71875 243.296875 L 96.542969 243.296875 L 96.542969 244.945312 L 97.363281 244.945312 L 97.363281 245.765625 L 98.183594 245.765625 L 98.183594 246.589844 L 99.839844 246.589844 L 99.839844 247.410156 L 101.488281 247.410156 L 101.488281 248.230469 L 103.136719 248.230469 L 103.136719 249.050781 L 106.421875 249.050781 L 106.421875 249.871094 L 104.773438 249.871094 L 104.773438 250.695312 L 102.304688 250.695312 L 102.304688 251.515625 L 99.839844 251.515625 L 99.839844 252.335938 L 99.019531 252.335938 L 99.019531 253.15625 L 97.371094 253.15625 L 97.371094 254.804688 L 96.550781 254.804688 L 96.550781 255.640625 L 95.730469 255.640625 L 95.730469 258.109375 L 94.910156 258.109375 L 94.910156 260.578125 L 94.089844 260.578125 L 94.089844 262.21875 L 93.265625 262.21875 L 93.265625 258.929688 L 92.445312 258.929688 L 92.445312 256.664062 L 91.625 256.664062 L 91.625 255.640625 L 90.804688 255.640625 L 90.804688 253.992188 L 89.984375 253.992188 L 89.984375 253.171875 L 89.160156 253.171875 L 89.160156 252.351562 L 87.5 252.351562 L 87.5 251.53125 L 85.855469 251.53125 L 85.855469 250.707031 L 82.566406 250.707031 L 82.566406 249.886719 L 80.921875 249.886719 L 80.921875 249.066406 L 84.210938 249.066406 L 84.210938 248.246094 L 86.679688 248.246094 L 86.679688 247.425781 L 88.324219 247.425781 L 88.324219 246.601562 L 89.148438 246.601562 L 89.148438 245.78125 L 89.96875 245.78125 L 89.96875 244.960938 L 90.789062 244.960938 L 90.789062 244.140625 L 91.609375 244.140625 L 91.609375 242.492188 L 92.429688 242.492188 L 92.429688 240.007812 L 93.253906 240.007812 L 93.253906 236.71875 Z M 93.257812 236.71875 " fill-opacity="1" fill-rule="nonzero"/></g><g fill="#000000" fill-opacity="1"><g transform="translate(132.164531, 262.119523)"><g><path d="M -2.859375 -30.203125 L 18.328125 -32.75 L 18.890625 -25.359375 L 12.921875 -24.359375 L 14.703125 -2.421875 L 6.921875 -0.71875 L 4.375 -23.390625 L -1.953125 -22.90625 Z M -2.859375 -30.203125 "/></g></g></g><g fill="#000000" fill-opacity="1"><g transform="translate(154.718692, 259.40325)"><g><path d="M 17.125 -32.359375 L 19.09375 -30.625 L 21.5 -5.0625 L 20.390625 -2.21875 L 3.4375 -0.328125 L 0.796875 -1.515625 L -2.203125 -28.3125 L -1.203125 -30.3125 Z M 6.171875 -24.796875 L 8.25 -7.359375 L 13.375 -7.5625 L 11.640625 -24.921875 Z M 6.171875 -24.796875 "/></g></g></g><g fill="#000000" fill-opacity="1"><g transform="translate(177.371773, 257.006093)"><g><path d="M 23.125 -32.359375 L 26.109375 -2.390625 L 18.140625 -1.875 L 16.03125 -18.921875 L 12.375 -12.28125 L 7.921875 -17.984375 L 8.796875 -1.15625 L 0.765625 -0.140625 L -1.515625 -30.453125 L 6.5 -31.046875 L 11.296875 -24.609375 L 14.75 -31.734375 Z M 23.125 -32.359375 "/></g></g></g><g fill="#000000" fill-opacity="1"><g transform="translate(204.060805, 254.64658)"><g><path d="M 23.6875 -31.9375 L 26.15625 -1.921875 L 18.171875 -1.546875 L 16.359375 -18.625 L 12.59375 -12.046875 L 8.25 -17.84375 L 8.8125 -1 L 0.765625 -0.125 L -0.96875 -30.46875 L 7.0625 -30.921875 L 11.71875 -24.390625 L 15.3125 -31.484375 Z M 23.6875 -31.9375 "/></g></g></g><g fill="#000000" fill-opacity="1"><g transform="translate(230.802158, 252.779519)"><g><path d="M 20.5 -29.21875 L 20.78125 -26.65625 L 11.46875 -0.34375 L 4.390625 -1.484375 L 4.03125 -3.140625 L 7.078125 -14.203125 L -0.796875 -29.1875 L 6.625 -30.9375 L 10.859375 -23.875 L 13.359375 -31.359375 Z M 20.5 -29.21875 "/></g></g></g><g clip-path="url(#5c1e2308ac)"><g clip-path="url(#d582abcc9b)"><g clip-path="url(#d964d34207)"><g clip-path="url(#89c20b9db6)"><path fill="#000000" d="M 286.429688 221.273438 L 287.25 221.210938 L 287.371094 222.855469 L 288.1875 222.792969 L 288.429688 226.074219 L 289.246094 226.015625 L 289.367188 227.652344 L 290.1875 227.59375 L 290.304688 229.234375 L 291.125 229.175781 L 291.183594 229.996094 L 292.003906 229.933594 L 292.0625 230.753906 L 293.71875 230.632812 L 293.777344 231.453125 L 295.421875 231.332031 L 295.480469 232.152344 L 297.121094 232.03125 L 297.183594 232.847656 L 300.457031 232.609375 L 300.519531 233.429688 L 298.875 233.546875 L 298.9375 234.367188 L 296.472656 234.546875 L 296.535156 235.367188 L 294.078125 235.546875 L 294.136719 236.367188 L 293.316406 236.425781 L 293.378906 237.246094 L 291.734375 237.363281 L 291.855469 239.007812 L 291.035156 239.066406 L 291.097656 239.902344 L 290.277344 239.960938 L 290.460938 242.421875 L 289.640625 242.484375 L 289.820312 244.945312 L 289 245.003906 L 289.121094 246.644531 L 288.300781 246.703125 L 288.0625 243.421875 L 287.242188 243.480469 L 287.078125 241.222656 L 286.257812 241.285156 L 286.183594 240.261719 L 285.367188 240.320312 L 285.246094 238.679688 L 284.425781 238.738281 L 284.367188 237.917969 L 283.546875 237.980469 L 283.488281 237.160156 L 281.828125 237.28125 L 281.769531 236.464844 L 280.132812 236.582031 L 280.070312 235.765625 L 276.789062 236.003906 L 276.730469 235.183594 L 275.085938 235.304688 L 275.027344 234.488281 L 278.308594 234.246094 L 278.25 233.429688 L 280.710938 233.246094 L 280.648438 232.429688 L 282.292969 232.308594 L 282.234375 231.488281 L 283.050781 231.429688 L 282.992188 230.609375 L 283.8125 230.550781 L 283.75 229.730469 L 284.570312 229.671875 L 284.511719 228.851562 L 285.328125 228.792969 L 285.207031 227.148438 L 286.027344 227.089844 L 285.847656 224.613281 L 286.664062 224.554688 L 286.425781 221.273438 Z M 286.429688 221.273438 " fill-opacity="1" fill-rule="nonzero"/></g></g></g></g></svg>